<svg class="main-svg" xmlns="http://www.w3.org/2000/svg" xmlns:xlink="http://www.w3.org/1999/xlink" width="600" height="600" style="" viewBox="0 0 600 600"><rect x="0" y="0" width="600" height="600" style="fill: rgb(255, 255, 255); fill-opacity: 1;"/><defs id="defs-2e1819"><g class="clips"><clipPath id="clip2e1819xyplot" class="plotclip"><rect width="440" height="131.59999999999997"/></clipPath><clipPath id="clip2e1819x2y2plot" class="plotclip"><rect width="440" height="131.59999999999997"/></clipPath><clipPath id="clip2e1819x3y3plot" class="plotclip"><rect width="440" height="131.6"/></clipPath><clipPath class="axesclip" id="clip2e1819x"><rect x="80" y="0" width="440" height="600"/></clipPath><clipPath class="axesclip" id="clip2e1819y"><rect x="0" y="100.0000000000001" width="600" height="131.59999999999997"/></clipPath><clipPath class="axesclip" id="clip2e1819xy"><rect x="80" y="100.0000000000001" width="440" height="131.59999999999997"/></clipPath><clipPath class="axesclip" id="clip2e1819y2"><rect x="0" y="244.20000000000007" width="600" height="131.59999999999997"/></clipPath><clipPath class="axesclip" id="clip2e1819xy2"><rect x="80" y="244.20000000000007" width="440" height="131.59999999999997"/></clipPath><clipPath class="axesclip" id="clip2e1819y3"><rect x="0" y="388.40000000000003" width="600" height="131.6"/></clipPath><clipPath class="axesclip" id="clip2e1819xy3"><rect x="80" y="388.40000000000003" width="440" height="131.6"/></clipPath><clipPath class="axesclip" id="clip2e1819x2"><rect x="80" y="0" width="440" height="600"/></clipPath><clipPath class="axesclip" id="clip2e1819x2y"><rect x="80" y="100.0000000000001" width="440" height="131.59999999999997"/></clipPath><clipPath class="axesclip" id="clip2e1819x2y2"><rect x="80" y="244.20000000000007" width="440" height="131.59999999999997"/></clipPath><clipPath class="axesclip" id="clip2e1819x2y3"><rect x="80" y="388.40000000000003" width="440" height="131.6"/></clipPath><clipPath class="axesclip" id="clip2e1819x3"><rect x="80" y="0" width="440" height="600"/></clipPath><clipPath class="axesclip" id="clip2e1819x3y"><rect x="80" y="100.0000000000001" width="440" height="131.59999999999997"/></clipPath><clipPath class="axesclip" id="clip2e1819x3y2"><rect x="80" y="244.20000000000007" width="440" height="131.59999999999997"/></clipPath><clipPath class="axesclip" id="clip2e1819x3y3"><rect x="80" y="388.40000000000003" width="440" height="131.6"/></clipPath></g><g class="gradients"/><g class="patterns"/></defs><g class="bglayer"/><g class="layer-below"><g class="imagelayer"/><g class="shapelayer"/></g><g class="cartesianlayer"><g class="subplot xy"><g class="layer-subplot"><g class="shapelayer"/><g class="imagelayer"/></g><g class="minor-gridlayer"><g class="x"/><g class="y"/></g><g class="gridlayer"><g class="x"/><g class="y"/></g><g class="zerolinelayer"/><path class="xlines-below"/><path class="ylines-below"/><g class="overlines-below"/><g class="xaxislayer-below"/><g class="yaxislayer-below"/><g class="overaxes-below"/><g class="plot" transform="translate(80,100.0000000000001)" clip-path="url(#clip2e1819xyplot)"><g class="scatterlayer mlayer"><g class="trace scatter tracebdaf34" style="stroke-miterlimit: 2; opacity: 1;"><g class="fills"/><g class="errorbars"/><g class="lines"><path class="js-line" d="M0,126.82L15.45,126.63L15.48,126.43L15.72,122.76L15.75,121L16.16,80.01L16.21,73.74L16.94,24.42L17.29,30.62L17.35,31.9L18.45,132.14L18.51,140.08L18.64,152.74L18.99,117.18L19.05,109.28L19.67,17.52L20.13,42.87L20.18,45.69L21.61,108.19L21.67,109.17L22.83,122.83L22.88,123.04L23.99,125.52L24.05,125.54L27.34,126.64L27.37,126.63L33.91,126.44L33.96,126.39L34.99,124.45L35.04,124.34L35.58,123.87L35.93,124.08L35.99,124.09L37.07,124.81L37.1,124.9L38.37,125.78L38.42,125.79L43.5,126.6L43.55,126.6L46.96,126.72L47.01,126.71L51.34,126.87L51.39,126.84L52.63,126.88L52.69,126.85L54.79,127.11L54.85,127.14L56.82,126.99L56.87,126.96L58.28,126.86L58.31,126.88L62.6,127.07L62.63,127.02L63.68,127.18L63.71,127.19L78.27,126.98L78.3,127L81.87,126.82L81.92,126.81L83.81,127.11L83.84,127.12L89.03,126.96L89.08,127L98.43,126.22L98.48,126.16L99.51,122.59L99.56,122.31L100.29,114.91L100.32,114.28L102.62,82L102.94,83.1L103,83.42L105.64,117.44L105.7,117.78L106.78,123.35L106.81,123.44L109.34,126.29L109.37,126.29L114.61,126.58L114.64,126.55L116.23,124.98L116.26,124.89L116.99,121.68L117.05,121.35L118.94,79.64L118.96,77.79L121.23,-0.27L121.53,1.72L121.58,2.34L122.21,18.5L122.26,20.04L125.72,115.14L125.77,115.53L127.74,124.03L127.8,124.08L130.01,125.88L130.04,125.9L131.8,126.16L131.85,126.17L133.88,126.35L133.93,126.35L149.06,126.89L149.09,126.86L154.14,127.01L154.2,127.03L157.6,127.04L157.65,127.01L159.49,126.82L159.55,126.84L160.76,126.78L160.82,126.79L164.27,126.88L164.33,126.87L168.6,126.77L168.65,126.76L172.11,126.86L172.16,126.86L180.3,126.84L180.35,126.83L184.89,127.12L184.94,127.1L193.37,126.92L193.4,126.92L269.59,126.65L269.65,126.64L272.62,125.91L272.67,125.88L275,123.33L275.05,123.23L277.4,116.17L277.43,115.94L282.75,93.89L282.81,93.87L283.56,94.28L283.62,94.38L285.37,100.13L285.4,100.35L290.8,122.14L290.86,122.23L292.83,125.15L292.88,125.2L295.58,126.39L295.64,126.4L298.02,126.77L298.07,126.76L302.15,126.98L302.2,126.96L305.8,126.94L305.85,126.96L307.82,127.17L307.88,127.17L315.23,127.33L315.25,127.39L336.03,126.8L336.06,126.79L350.3,126.84L350.35,126.83L353.89,126.76L353.95,126.74L363.75,126.91L363.81,126.89L367.32,126.96L367.37,126.93L370.24,127.01L370.29,127.02L389.75,126.5L389.8,126.46L392.5,125.45L392.53,125.41L397.26,120.75L397.31,120.69L400.47,118L400.5,118L402.98,118.11L403.04,118.15L407.12,121.45L407.17,121.5L411.5,125.1L411.55,125.1L415.68,126.38L415.74,126.36L420.09,126.83L420.14,126.85L428.84,126.98L428.87,127.01L433.43,127.21L433.46,127.18L433.79,126.94" style="vector-effect: non-scaling-stroke; fill: none; stroke: rgb(0, 0, 0); stroke-opacity: 1; stroke-width: 0.5px; opacity: 1;"/></g><g class="points"/><g class="text"/></g></g></g><g class="overplot"/><path class="xlines-above crisp" d="M79,232.10000000000008H520" style="fill: none; stroke-width: 1px; stroke: rgb(36, 36, 36); stroke-opacity: 1;"/><path class="ylines-above crisp" d="M79.5,100.0000000000001V231.60000000000008" style="fill: none; stroke-width: 1px; stroke: rgb(36, 36, 36); stroke-opacity: 1;"/><g class="overlines-above"/><g class="xaxislayer-above"><path class="xtick ticks crisp" d="M0,232.60000000000008v5" transform="translate(80,0)" style="stroke: rgb(68, 68, 68); stroke-opacity: 1; stroke-width: 1px;"/><path class="xtick ticks crisp" d="M0,232.60000000000008v5" transform="translate(215.09,0)" style="stroke: rgb(68, 68, 68); stroke-opacity: 1; stroke-width: 1px;"/><path class="xtick ticks crisp" d="M0,232.60000000000008v5" transform="translate(350.19,0)" style="stroke: rgb(68, 68, 68); stroke-opacity: 1; stroke-width: 1px;"/><path class="xtick ticks crisp" d="M0,232.60000000000008v5" transform="translate(485.28,0)" style="stroke: rgb(68, 68, 68); stroke-opacity: 1; stroke-width: 1px;"/></g><g class="yaxislayer-above"><path class="ytick ticks crisp" d="M79,0h-5" transform="translate(0,226.9800000000001)" style="stroke: rgb(68, 68, 68); stroke-opacity: 1; stroke-width: 1px;"/><path class="ytick ticks crisp" d="M79,0h-5" transform="translate(0,180.81000000000012)" style="stroke: rgb(68, 68, 68); stroke-opacity: 1; stroke-width: 1px;"/><path class="ytick ticks crisp" d="M79,0h-5" transform="translate(0,134.6300000000001)" style="stroke: rgb(68, 68, 68); stroke-opacity: 1; stroke-width: 1px;"/><g class="ytick"><text text-anchor="end" x="71.6" y="4.199999999999999" transform="translate(0,226.9800000000001)" style="font-family: 'Open Sans', verdana, arial, sans-serif; font-size: 12px; fill: rgb(36, 36, 36); fill-opacity: 1; white-space: pre; opacity: 1;">0</text></g><g class="ytick"><text text-anchor="end" x="71.6" y="4.199999999999999" style="font-family: 'Open Sans', verdana, arial, sans-serif; font-size: 12px; fill: rgb(36, 36, 36); fill-opacity: 1; white-space: pre; opacity: 1;" transform="translate(0,180.81000000000012)">20</text></g><g class="ytick"><text text-anchor="end" x="71.6" y="4.199999999999999" style="font-family: 'Open Sans', verdana, arial, sans-serif; font-size: 12px; fill: rgb(36, 36, 36); fill-opacity: 1; white-space: pre; opacity: 1;" transform="translate(0,134.6300000000001)">40</text></g></g><g class="overaxes-above"/></g><g class="subplot x2y2"><g class="layer-subplot"><g class="shapelayer"/><g class="imagelayer"/></g><g class="minor-gridlayer"><g class="x2"/><g class="y2"/></g><g class="gridlayer"><g class="x2"/><g class="y2"/></g><g class="zerolinelayer"/><path class="xlines-below"/><path class="ylines-below"/><g class="overlines-below"/><g class="xaxislayer-below"/><g class="yaxislayer-below"/><g class="overaxes-below"/><g class="plot" transform="translate(80,244.20000000000007)" clip-path="url(#clip2e1819x2y2plot)"><g class="scatterlayer mlayer"><g class="trace scatter trace8acd79" style="stroke-miterlimit: 2; opacity: 1;"><g class="fills"/><g class="errorbars"/><g class="lines"><path class="js-line" d="M0,126.83L10.21,126.53L10.27,126.43L11.13,121.92L11.16,121.52L12.08,109.08L12.1,107.87L12.62,82.73L12.64,78.78L13.19,-16.09L13.24,-29.64L14.743641227370187,-2631.999999999999L29.310507106491674,-2631.999999999999L35.72,-662.47L35.75,-651.22L46.82,-142.55L46.88,-141.44L48.15,-154.9L50.58,-53.97L50.61,-52.48L53.44,-15.37L53.5,-15.25L55.58,-7.2L56.14,-8.75L56.2,-8.95L56.79,-10.34L57.33,-8.44L57.36,-8.09L58.44,5.1L58.5,5.76L61.82,40.48L61.87,40.74L64.44,52.09L64.71,51.92L64.76,51.89L66.2,51.77L66.25,51.82L67.33,52.19L67.41,52.11L67.47,52.04L68.55,50.72L68.82,51.03L68.84,51.08L70.25,52.69L70.46,52.22L70.52,52.05L71.19,47.54L71.25,47.14L72.55,38.01L72.63,38.13L72.68,38.22L73.36,43.05L73.41,43.58L75.52,68.59L75.57,68.88L76.6,71.56L76.65,71.64L78.76,77.78L78.81,77.96L80.38,82.95L80.43,83.05L81.79,85.15L81.81,85.25L83.68,87.22L83.76,87.16L83.81,87.12L85.3,84.43L85.33,84.39L86.46,84.87L86.51,84.98L92.21,96.52L92.27,96.56L93.94,97.24L93.97,97.21L97.35,97.31L97.4,97.34L99.16,99.98L99.21,100.08L101.05,102.48L101.1,102.49L102.18,102.85L102.35,102.52L102.4,102.45L103.83,98.28L103.89,98L106.26,88.13L106.32,88.16L107.08,90.42L107.13,90.6L110.51,103.38L110.56,103.37L111.13,102.53L111.18,102.41L111.8,99.03L111.86,98.68L112.75,86.81L112.8,85.96L113.88,60.37L113.94,59.1L115.1,32.65L115.15,32.08L115.64,28.87L115.99,30.21L116.05,30.58L116.91,44.13L116.94,45.1L119.83,91.79L119.88,91.96L120.56,92.8L120.77,92.65L120.83,92.62L122.18,91.57L122.39,91.9L122.45,91.96L123.53,95.51L123.56,95.73L127.45,111.08L127.47,111.12L130.58,112.99L130.64,112.99L134.09,113.79L134.15,113.85L135.36,114.44L135.42,114.48L136.71,114.67L136.77,114.67L138.34,114.28L138.39,114.28L142.25,114.46L142.31,114.48L144.23,114.85L144.28,114.85L148.39,114.7L148.41,114.74L152.33,116.88L152.39,116.88L158.68,118.27L158.74,118.26L161.98,118.82L162.03,118.91L162.25,119.09L162.6,118.59L162.65,118.59L162.71,118.59L164.63,118.83L164.68,118.81L166.11,118.77L166.17,118.78L171.16,119.58L171.22,119.56L178.27,120.8L178.32,120.83L180.62,121.01L180.67,121L191.43,121.11L191.48,121.13L193.72,121.44L193.78,121.45L195.53,121.58L195.56,121.59L198.32,121.49L198.37,121.49L199.8,121.25L199.86,121.24L202.29,121.14L202.32,121.1L204.05,121.49L204.07,121.52L207.72,122.27L207.77,122.27L217.31,123L217.37,123.04L218.45,122.68L218.5,122.66L220.55,122.87L220.61,122.87L225.01,123.01L225.07,123.09L225.53,122.89L225.69,122.64L225.74,122.61L228.31,122.57L228.36,122.57L234.47,122.81L234.52,122.84L238.44,123.53L238.49,123.52L240.2,124.12L240.25,124.18L241.01,123.81L241.06,123.81L243.03,124.14L243.09,124.13L245.95,124.01L246.01,124.01L248.03,124.11L248.09,124.11L249.38,124.56L249.44,124.57L250.95,124.22L251,124.21L253.08,124.09L253.11,124.11L260.14,124.23L260.19,124.2L268.92,124.42L268.97,124.43L270.13,124.39L270.19,124.38L274.83,124.83L274.86,124.8L276.67,124.82L276.73,124.83L279.32,124.86L279.37,124.85L282.67,124.91L282.7,124.91L289.02,124.96L289.05,124.95L295.18,125.17L295.23,125.16L299.29,125.14L299.31,125.18L301.88,124.83L301.93,124.81L307.2,124.72L307.26,124.75L309.18,124.67L309.23,124.7L328.22,125.33L328.28,125.31L331.98,125.67L332.01,125.68L336.25,125.62L336.3,125.63L339,125.6L339.03,125.59L342.87,125.9L342.92,125.93L343.95,125.71L344,125.68L346.03,125.82L346.06,125.83L351.32,125.65L351.38,125.63L356.51,125.84L356.57,125.85L361.19,125.99L361.24,125.99L366.32,126.04L366.37,126.06L373.26,125.68L373.32,125.67L379.56,123.66L379.61,123.66L383.88,122.66L383.94,122.69L392.64,125.82L392.66,125.85L393.99,125.68L394.01,125.68L396.42,126.17L396.45,126.19L403.58,126.24L403.61,126.23L409.39,126.2L409.41,126.17L412.44,126.44L412.49,126.46L415.74,126.3L415.76,126.28L418.57,126.43L418.6,126.45L426.49,126.31L426.54,126.32L430.14,126.4L430.19,126.4L433.57,126.28" style="vector-effect: non-scaling-stroke; fill: none; stroke: rgb(0, 0, 0); stroke-opacity: 1; stroke-width: 0.5px; opacity: 1;"/></g><g class="points"/><g class="text"/></g></g></g><g class="overplot"/><path class="xlines-above crisp" d="M79,376.30000000000007H520" style="fill: none; stroke-width: 1px; stroke: rgb(36, 36, 36); stroke-opacity: 1;"/><path class="ylines-above crisp" d="M79.5,244.20000000000007V375.80000000000007" style="fill: none; stroke-width: 1px; stroke: rgb(36, 36, 36); stroke-opacity: 1;"/><g class="overlines-above"/><g class="xaxislayer-above"><path class="x2tick ticks crisp" d="M0,376.80000000000007v5" transform="translate(80,0)" style="stroke: rgb(68, 68, 68); stroke-opacity: 1; stroke-width: 1px;"/><path class="x2tick ticks crisp" d="M0,376.80000000000007v5" transform="translate(215.09,0)" style="stroke: rgb(68, 68, 68); stroke-opacity: 1; stroke-width: 1px;"/><path class="x2tick ticks crisp" d="M0,376.80000000000007v5" transform="translate(350.19,0)" style="stroke: rgb(68, 68, 68); stroke-opacity: 1; stroke-width: 1px;"/><path class="x2tick ticks crisp" d="M0,376.80000000000007v5" transform="translate(485.28,0)" style="stroke: rgb(68, 68, 68); stroke-opacity: 1; stroke-width: 1px;"/></g><g class="yaxislayer-above"><path class="y2tick ticks crisp" d="M79,0h-5" transform="translate(0,371.18000000000006)" style="stroke: rgb(68, 68, 68); stroke-opacity: 1; stroke-width: 1px;"/><path class="y2tick ticks crisp" d="M79,0h-5" transform="translate(0,325.0100000000001)" style="stroke: rgb(68, 68, 68); stroke-opacity: 1; stroke-width: 1px;"/><path class="y2tick ticks crisp" d="M79,0h-5" transform="translate(0,278.8300000000001)" style="stroke: rgb(68, 68, 68); stroke-opacity: 1; stroke-width: 1px;"/><g class="y2tick"><text text-anchor="end" x="71.6" y="4.199999999999999" transform="translate(0,371.18000000000006)" style="font-family: 'Open Sans', verdana, arial, sans-serif; font-size: 12px; fill: rgb(36, 36, 36); fill-opacity: 1; white-space: pre; opacity: 1;">0</text></g><g class="y2tick"><text text-anchor="end" x="71.6" y="4.199999999999999" style="font-family: 'Open Sans', verdana, arial, sans-serif; font-size: 12px; fill: rgb(36, 36, 36); fill-opacity: 1; white-space: pre; opacity: 1;" transform="translate(0,325.0100000000001)">20</text></g><g class="y2tick"><text text-anchor="end" x="71.6" y="4.199999999999999" style="font-family: 'Open Sans', verdana, arial, sans-serif; font-size: 12px; fill: rgb(36, 36, 36); fill-opacity: 1; white-space: pre; opacity: 1;" transform="translate(0,278.8300000000001)">40</text></g></g><g class="overaxes-above"/></g><g class="subplot x3y3"><g class="layer-subplot"><g class="shapelayer"/><g class="imagelayer"/></g><g class="minor-gridlayer"><g class="x3"/><g class="y3"/></g><g class="gridlayer"><g class="x3"/><g class="y3"/></g><g class="zerolinelayer"/><path class="xlines-below"/><path class="ylines-below"/><g class="overlines-below"/><g class="xaxislayer-below"/><g class="yaxislayer-below"/><g class="overaxes-below"/><g class="plot" transform="translate(80,388.40000000000003)" clip-path="url(#clip2e1819x3y3plot)"><g class="scatterlayer mlayer"><g class="trace scatter trace15c05e" style="stroke-miterlimit: 2; opacity: 1;"><g class="fills"/><g class="errorbars"/><g class="lines"><path class="js-line" d="M0,127.19L10.81,126.44L10.86,126.24L11.81,114.13L11.83,113.27L12.62,91.99L12.64,89.73L13.19,41.22L13.24,34.58L15.1371257271514,-2632L0,-2632L25.396444045834013,-2632.0000000000005L29.86,-826.26L29.91,-816.46L33.1,-1771.57L41.01,-228.61L47.07,-257.81L47.09,-253.21L52.42,-34.78L52.47,-33.45L53.98,-1.75L54.04,-1.08L55.6,10.92L55.66,10.91L56.79,10.15L56.93,10.49L56.96,10.65L58.14,18L58.17,18.27L58.68,19.8L59.04,18.81L59.09,18.54L60.2,11.72L60.44,12.14L60.47,12.33L61.14,18.57L61.2,19.15L64.79,53.3L64.84,53.51L66.39,60.5L66.41,60.73L68.63,68.3L68.76,68.21L68.82,68.16L72.22,64.05L72.28,64.02L73.41,64.34L73.44,64.43L74.22,65.29L74.49,64.77L74.52,64.62L75.38,59.45L75.44,59.07L76.54,52.31L76.6,52.32L77.14,54.62L77.19,54.96L79.89,79.12L79.92,79.27L83.41,87.67L83.43,87.88L85.6,92.36L85.65,92.41L88.62,95.08L88.68,95.07L89.76,93.54L89.78,93.44L91.32,92.04L91.38,92.04L92.08,93.36L92.13,93.49L95.19,99.76L95.24,99.78L96.73,101.11L96.78,101.15L99.65,103.35L99.7,103.34L101.1,101.95L101.13,101.84L102.18,97.58L102.21,97.35L104.02,90.37L104.35,90.76L104.37,90.84L105.1,93.23L105.16,93.47L106.4,100L106.45,100.18L109.16,107L109.21,106.99L110.43,105.3L110.45,105.16L111.51,101.01L111.53,100.77L113.26,94.65L113.56,94.88L113.61,94.96L115.1,100.57L115.15,100.8L116.72,107.5L116.77,107.61L117.72,108.66L117.94,108.4L117.99,108.33L118.8,105.44L118.83,105.17L119.69,96.34L119.75,95.64L122.88,9.03L122.94,8.59L123.21,7.29L123.56,9.08L123.61,9.57L124.48,27.7L124.5,29.04L128.07,102.69L128.12,102.99L129.34,107.67L129.37,107.79L132.34,113.02L132.39,113.07L135.09,115.35L135.15,115.38L139.15,116.11L139.2,116.08L140.31,116L140.36,116.01L143.93,116.98L143.96,116.96L146.17,117.71L146.23,117.74L147.33,117.75L147.39,117.75L148.82,116.94L148.87,116.91L150.95,116.45L150.98,116.47L153.01,117.41L153.06,117.46L154.68,117.73L154.74,117.72L160.03,118.38L160.09,118.41L166.57,119.93L166.62,119.96L168.25,120.63L168.27,120.58L169.27,120.83L169.33,120.84L171.7,120.75L171.76,120.77L174.87,120.61L174.89,120.58L176.24,120.73L176.3,120.73L179.05,120.75L179.08,120.76L187.56,121.55L187.59,121.52L190.94,122.23L190.97,122.28L192.29,122.56L192.32,122.54L193.78,122.52L193.81,122.55L195.43,122.77L195.48,122.73L196.64,122.85L196.7,122.84L201.61,122.43L201.64,122.42L204.45,122.45L204.48,122.47L205.83,122.66L205.88,122.64L218.45,122.86L218.5,122.84L220.26,122.78L220.28,122.78L231.96,123.77L232.01,123.76L234.33,123.9L234.39,123.9L237.31,123.88L237.36,123.89L241.6,123.81L241.63,123.8L247.68,123.76L247.71,123.75L250.65,124.03L250.68,124.04L251.87,123.95L251.9,123.94L253.52,123.88L253.57,123.9L255.06,124.05L255.11,124.04L259.84,124.75L259.87,124.79L261.27,124.78L261.33,124.79L266.46,124.87L266.49,124.85L276.67,125.56L276.73,125.6L277.4,124.93L277.43,124.91L280.78,125.02L280.81,124.96L282.35,124.62L282.4,124.61L285.4,122.81L285.45,122.76L290.26,120.87L290.32,120.89L293.56,122.72L293.61,122.74L300.26,125.6L300.31,125.58L301.58,125.52L301.61,125.53L303.2,125.53L303.23,125.51L310.9,125.84L310.93,125.85L313.2,125.68L313.23,125.69L315.71,125.72L315.77,125.7L317.96,125.79L318.01,125.79L325.31,126.05L325.36,126.09L326.87,125.88L326.93,125.83L328.33,125.62L328.36,125.63L329.57,125.56L329.63,125.55L337.54,125.45L337.6,125.49L339.71,125.66L339.76,125.67L343.35,126.1L343.41,126.07L344.89,125.76L344.95,125.79L347.14,125.96L347.19,125.95L360.7,126.03L360.75,126L404.34,125.8L404.39,125.76L407.9,124.48L407.93,124.48L411.5,123.01L411.55,122.97L413.17,122.97L413.2,123.01L413.93,122.61L413.98,122.6L427.65,126.34L427.71,126.34L440,126.6" style="vector-effect: non-scaling-stroke; fill: none; stroke: rgb(0, 0, 0); stroke-opacity: 1; stroke-width: 0.5px; opacity: 1;"/></g><g class="points"/><g class="text"/></g></g></g><g class="overplot"/><path class="xlines-above crisp" d="M79,520.5H520" style="fill: none; stroke-width: 1px; stroke: rgb(36, 36, 36); stroke-opacity: 1;"/><path class="ylines-above crisp" d="M79.5,388.40000000000003V520" style="fill: none; stroke-width: 1px; stroke: rgb(36, 36, 36); stroke-opacity: 1;"/><g class="overlines-above"/><g class="xaxislayer-above"><path class="x3tick ticks crisp" d="M0,521v5" transform="translate(80,0)" style="stroke: rgb(68, 68, 68); stroke-opacity: 1; stroke-width: 1px;"/><path class="x3tick ticks crisp" d="M0,521v5" transform="translate(215.09,0)" style="stroke: rgb(68, 68, 68); stroke-opacity: 1; stroke-width: 1px;"/><path class="x3tick ticks crisp" d="M0,521v5" transform="translate(350.19,0)" style="stroke: rgb(68, 68, 68); stroke-opacity: 1; stroke-width: 1px;"/><path class="x3tick ticks crisp" d="M0,521v5" transform="translate(485.28,0)" style="stroke: rgb(68, 68, 68); stroke-opacity: 1; stroke-width: 1px;"/><g class="x3tick"><text text-anchor="middle" x="0" y="540.4" transform="translate(80,0)" style="font-family: 'Open Sans', verdana, arial, sans-serif; font-size: 12px; fill: rgb(36, 36, 36); fill-opacity: 1; white-space: pre; opacity: 1;">0</text></g><g class="x3tick"><text text-anchor="middle" x="0" y="540.4" style="font-family: 'Open Sans', verdana, arial, sans-serif; font-size: 12px; fill: rgb(36, 36, 36); fill-opacity: 1; white-space: pre; opacity: 1;" transform="translate(215.09,0)">5</text></g><g class="x3tick"><text text-anchor="middle" x="0" y="540.4" style="font-family: 'Open Sans', verdana, arial, sans-serif; font-size: 12px; fill: rgb(36, 36, 36); fill-opacity: 1; white-space: pre; opacity: 1;" transform="translate(350.19,0)">10</text></g><g class="x3tick"><text text-anchor="middle" x="0" y="540.4" style="font-family: 'Open Sans', verdana, arial, sans-serif; font-size: 12px; fill: rgb(36, 36, 36); fill-opacity: 1; white-space: pre; opacity: 1;" transform="translate(485.28,0)">15</text></g></g><g class="yaxislayer-above"><path class="y3tick ticks crisp" d="M79,0h-5" transform="translate(0,515.38)" style="stroke: rgb(68, 68, 68); stroke-opacity: 1; stroke-width: 1px;"/><path class="y3tick ticks crisp" d="M79,0h-5" transform="translate(0,469.21000000000004)" style="stroke: rgb(68, 68, 68); stroke-opacity: 1; stroke-width: 1px;"/><path class="y3tick ticks crisp" d="M79,0h-5" transform="translate(0,423.03000000000003)" style="stroke: rgb(68, 68, 68); stroke-opacity: 1; stroke-width: 1px;"/><g class="y3tick"><text text-anchor="end" x="71.6" y="4.199999999999999" transform="translate(0,515.38)" style="font-family: 'Open Sans', verdana, arial, sans-serif; font-size: 12px; fill: rgb(36, 36, 36); fill-opacity: 1; white-space: pre; opacity: 1;">0</text></g><g class="y3tick"><text text-anchor="end" x="71.6" y="4.199999999999999" style="font-family: 'Open Sans', verdana, arial, sans-serif; font-size: 12px; fill: rgb(36, 36, 36); fill-opacity: 1; white-space: pre; opacity: 1;" transform="translate(0,469.21000000000004)">20</text></g><g class="y3tick"><text text-anchor="end" x="71.6" y="4.199999999999999" style="font-family: 'Open Sans', verdana, arial, sans-serif; font-size: 12px; fill: rgb(36, 36, 36); fill-opacity: 1; white-space: pre; opacity: 1;" transform="translate(0,423.03000000000003)">40</text></g></g><g class="overaxes-above"/></g></g><g class="polarlayer"/><g class="smithlayer"/><g class="ternarylayer"/><g class="geolayer"/><g class="funnelarealayer"/><g class="pielayer"/><g class="iciclelayer"/><g class="treemaplayer"/><g class="sunburstlayer"/><g class="glimages"/><defs id="topdefs-2e1819"><g class="clips"/></defs><g class="layer-above"><g class="imagelayer"/><g class="shapelayer"/></g><g class="infolayer"><g class="g-gtitle"/><g class="g-xtitle"/><g class="g-x2title"/><g class="g-x3title"><text class="x3title" x="300" y="569.20625" text-anchor="middle" style="font-family: 'Times New Roman'; font-size: 14px; fill: rgb(36, 36, 36); opacity: 1; font-weight: normal; white-space: pre;"><tspan style="font-weight:bold">Retention time (min)</tspan></text></g><g class="g-ytitle"/><g class="g-y2title"><text class="y2title" transform="rotate(-90,32.075,310.00000000000006)" x="32.075" y="310.00000000000006" text-anchor="middle" style="font-family: 'Times New Roman'; font-size: 14px; fill: rgb(36, 36, 36); opacity: 1; font-weight: normal; white-space: pre;"><tspan style="font-weight:bold">Intensity (mV)</tspan></text></g><g class="g-y3title"/></g></svg>